HIERARCHY
ROOT root
{
	OFFSET 0.000000 0.000000 0.000000
	CHANNELS 6 Xposition Yposition Zposition Zrotation Yrotation Xrotation
	JOINT lhip
	{
		OFFSET 0.058581 -0.082280 -0.017664
		CHANNELS 3 Zrotation Yrotation Xrotation
		JOINT lknee
		{
			OFFSET 0.043451 -0.386469 0.008037
			CHANNELS 3 Zrotation Yrotation Xrotation
			JOINT lankle
			{
				OFFSET -0.014790 -0.426874 -0.037428
				CHANNELS 3 Zrotation Yrotation Xrotation
				JOINT ltoe
				{
					OFFSET 0.041054 -0.060286 0.122042
					CHANNELS 3 Zrotation Yrotation Xrotation
					End Site
					{
						OFFSET 0.000000 0.000000 0.000000
					}
				}
			}
		}
	}
	JOINT rhip
	{
		OFFSET -0.060310 -0.090513 -0.013543
		CHANNELS 3 Zrotation Yrotation Xrotation
		JOINT rknee
		{
			OFFSET -0.043257 -0.383688 -0.004843
			CHANNELS 3 Zrotation Yrotation Xrotation
			JOINT rankle
			{
				OFFSET 0.019056 -0.420046 -0.034562
				CHANNELS 3 Zrotation Yrotation Xrotation
				JOINT rtoe
				{
					OFFSET -0.034840 -0.062106 0.130323
					CHANNELS 3 Zrotation Yrotation Xrotation
					End Site
					{
						OFFSET 0.000000 0.000000 0.000000
					}
				}
			}
		}
	}
	JOINT lowerback
	{
		OFFSET 0.004439 0.124404 -0.038385
		CHANNELS 3 Zrotation Yrotation Xrotation
		JOINT upperback
		{
			OFFSET 0.004488 0.137956 0.026820
			CHANNELS 3 Zrotation Yrotation Xrotation
			JOINT chest
			{
				OFFSET -0.002265 0.056032 0.002855
				CHANNELS 3 Zrotation Yrotation Xrotation
				JOINT lowerneck
				{
					OFFSET -0.013390 0.211636 -0.033468
					CHANNELS 3 Zrotation Yrotation Xrotation
					JOINT upperneck
					{
						OFFSET 0.010113 0.088937 0.050410
						CHANNELS 3 Zrotation Yrotation Xrotation
						End Site
						{
							OFFSET 0.000000 0.000000 0.000000
						}
					}
				}
				JOINT lclavicle
				{
					OFFSET 0.071702 0.114000 -0.018898
					CHANNELS 3 Zrotation Yrotation Xrotation
					JOINT lshoulder
					{
						OFFSET 0.122921 0.045205 -0.019046
						CHANNELS 3 Zrotation Yrotation Xrotation
						JOINT lelbow
						{
							OFFSET 0.255332 -0.015649 -0.022946
							CHANNELS 3 Zrotation Yrotation Xrotation
							JOINT lwrist
							{
								OFFSET 0.265709 0.012698 -0.007375
								CHANNELS 3 Zrotation Yrotation Xrotation
								End Site
								{
									OFFSET 0.000000 0.000000 0.000000
								}
							}
						}
					}
				}
				JOINT rclavicle
				{
					OFFSET -0.082954 0.112472 -0.023707
					CHANNELS 3 Zrotation Yrotation Xrotation
					JOINT rshoulder
					{
						OFFSET -0.113228 0.046853 -0.008472
						CHANNELS 3 Zrotation Yrotation Xrotation
						JOINT relbow
						{
							OFFSET -0.260127 -0.014369 -0.031269
							CHANNELS 3 Zrotation Yrotation Xrotation
							JOINT rwrist
							{
								OFFSET -0.269108 0.006794 -0.006027
								CHANNELS 3 Zrotation Yrotation Xrotation
								End Site
								{
									OFFSET 0.000000 0.000000 0.000000
								}
							}
						}
					}
				}
			}
		}
	}
}
MOTION
Frames: 8
Frame Time: 0.033333
0.005907 1.342478 0.980519 -2.866356 -2.385530 80.712881 3.036416 0.034999 0.922618 -2.592540 -9.374063 17.704642 0.408186 9.042294 -15.835720 0.000000 -0.000000 0.000000 -4.888778 -4.479553 3.128537 -2.917641 -2.829381 8.813447 2.666422 -12.616216 -13.970486 0.000000 -0.000000 0.000000 -3.220859 4.221294 9.659773 -1.849045 -3.043350 12.306375 -0.970435 0.660807 0.808623 4.742008 7.809910 -4.974950 3.772457 1.752308 -5.436331 -33.038791 -12.248252 5.202609 -39.527190 -7.893536 9.353634 -0.443772 -24.090188 4.078554 4.084791 -2.076395 0.105659 33.252230 14.908291 10.689108 45.732357 9.569319 15.616053 -10.574289 45.521930 -4.921773 0.213779 4.452354 -15.343814 
0.011976 1.343421 0.980464 -2.884636 -2.291637 80.841798 2.353935 -0.188717 1.133744 -2.024876 -9.432346 16.958783 0.750677 9.429468 -15.724748 0.000000 -0.000000 0.000000 -4.969010 -4.285714 2.960959 -3.272580 -2.808899 8.600019 3.095355 -12.749613 -13.382494 0.000000 -0.000000 0.000000 -3.702679 4.323081 9.982786 -1.900378 -3.082433 11.690784 -0.845808 0.633001 1.031856 4.610195 7.821322 -5.068583 4.120012 1.702430 -5.260823 -32.483929 -12.535221 5.356033 -39.997604 -7.920691 9.480864 -0.545045 -23.349093 4.427295 5.079541 -2.244813 -0.138186 32.901785 14.947600 10.793370 46.210510 8.955099 15.812590 -11.096497 46.063004 -5.088197 -0.987143 4.211059 -16.056425 
0.018563 1.344883 0.980648 -3.092023 -2.000740 81.058615 2.041761 -0.466299 0.958316 -1.797181 -9.471721 16.679010 1.230170 9.738317 -15.669186 0.000000 -0.000000 0.000000 -4.906547 -4.133048 2.710157 -3.481964 -2.671102 8.244930 3.229761 -12.893889 -12.734763 0.000000 -0.000000 0.000000 -3.955403 4.513901 10.121723 -1.898669 -3.009282 11.302643 -0.797540 0.680605 1.138713 4.388642 7.926464 -4.898659 4.113686 1.602371 -4.963011 -31.935094 -12.739599 5.372793 -40.241706 -8.285104 9.510780 -1.125709 -22.434670 5.357257 3.600059 -1.960516 -0.178978 32.508500 14.779635 10.913886 46.512525 8.519986 15.909803 -11.546099 46.379124 -5.275294 -1.267549 4.155700 -16.786157 
0.028121 1.347444 0.981038 -3.623443 -1.433458 81.342547 1.886150 -0.516436 0.943347 -1.562465 -9.737001 15.952601 1.803026 10.025818 -15.665746 0.000000 -0.000000 0.000000 -4.768843 -4.019766 2.364815 -3.608988 -2.395351 7.626687 3.530632 -12.766997 -11.651064 0.000000 -0.000000 0.000000 -4.370568 4.631631 10.424846 -1.927180 -2.904913 10.784612 -0.691244 0.808682 1.250258 4.192202 8.223981 -4.755061 4.115303 1.727506 -4.653686 -31.339237 -12.758042 5.134046 -40.334990 -8.535433 9.616119 -1.915326 -21.642775 6.368932 2.874574 -1.695495 0.053234 32.104383 14.569689 10.888154 46.588256 8.169514 16.028934 -11.413236 46.521930 -5.001693 -1.271656 4.105496 -17.149902 
0.031040 1.348400 0.981297 -3.902707 -1.197326 81.441464 1.935578 -0.492685 0.959835 -1.484495 -9.735951 15.686063 1.886231 10.111820 -15.695690 0.000000 -0.000000 0.000000 -4.707329 -3.989635 2.232302 -3.561256 -2.299740 7.408920 3.716090 -12.622217 -11.248137 0.000000 -0.000000 0.000000 -4.509966 4.669159 10.497688 -1.932736 -2.853092 10.693486 -0.654327 0.836621 1.269688 4.203193 8.351407 -4.776252 4.129612 1.794000 -4.594881 -31.244372 -12.710410 5.024394 -40.222148 -8.561243 9.651063 -2.143542 -21.494055 6.488279 2.909833 -1.734815 0.232685 32.067617 14.506132 10.822252 46.484108 8.164719 16.071821 -11.165961 46.452265 -4.792515 -1.141726 4.145955 -17.073116 
0.036321 1.350434 0.981869 -4.662387 -0.685046 81.674010 2.114882 -0.453683 0.948709 -1.280184 -9.489651 15.168014 1.963027 10.427569 -15.590132 0.000000 -0.000000 0.000000 -4.555410 -3.919758 1.820830 -3.367317 -2.068161 7.123968 4.205886 -12.143080 -10.487815 0.000000 -0.000000 0.000000 -4.755991 4.811064 10.571120 -1.932234 -2.685293 10.554109 -0.592229 0.912163 1.329693 4.317564 8.658305 -4.948101 4.231981 1.908170 -4.521068 -31.071340 -12.651824 4.797386 -39.967277 -8.579419 9.752093 -2.568837 -21.193194 6.569172 3.027005 -1.873686 0.584039 31.995205 14.414782 10.691639 46.335037 8.245493 16.138041 -10.758022 46.256383 -4.433907 -0.720705 4.250901 -16.893313 
0.040897 1.352702 0.982541 -5.600983 -0.173791 81.986625 2.362075 -0.474459 0.780013 -1.122917 -9.035535 14.768305 2.008093 10.915898 -15.377671 0.000000 -0.000000 0.000000 -4.424087 -3.799711 1.071174 -3.040903 -1.693882 7.342765 4.749707 -11.431489 -10.141289 0.000000 -0.000000 0.000000 -4.881357 5.020665 10.513825 -1.927853 -2.436965 10.413705 -0.599413 1.021834 1.440796 4.486980 9.032896 -5.210833 4.386285 1.966963 -4.512095 -30.884836 -12.717364 4.600023 -39.736247 -8.573299 9.899215 -2.909199 -20.819428 6.573696 3.015094 -1.972264 0.961884 31.850572 14.376316 10.621648 46.432032 8.362558 16.171302 -10.685847 46.066224 -4.357487 -0.245178 4.307204 -16.895418 
0.044711 1.355235 0.983392 -6.447764 0.237379 82.267975 2.579324 -0.449350 0.513681 -1.075545 -8.725635 14.536019 2.216073 11.253445 -15.251299 0.000000 -0.000000 0.000000 -4.407987 -3.556023 0.156147 -2.625377 -1.136146 8.126115 5.064496 -10.703830 -10.304702 0.000000 -0.000000 0.000000 -4.979967 5.156576 10.521095 -1.908349 -2.209300 10.278087 -0.642967 1.155458 1.529899 4.610449 9.480344 -5.536856 4.489374 1.972076 -4.540414 -30.694647 -12.847547 4.385649 -39.522529 -8.565569 10.001479 -3.156252 -20.427333 6.618661 2.748178 -1.888248 1.354191 31.743449 14.399611 10.620430 46.616266 8.496786 16.191347 -10.799047 45.954394 -4.495451 0.073199 4.277865 -17.057274 
